<?xml version="1.0" encoding="utf-8"?>
<!-- Generator: Adobe Illustrator 25.4.1, SVG Export Plug-In . SVG Version: 6.00 Build 0)  -->
<svg version="1.1" id="_x31_" xmlns="http://www.w3.org/2000/svg" xmlns:xlink="http://www.w3.org/1999/xlink" x="0px" y="0px"
	 viewBox="0 0 591.9 47.5" style="enable-background:new 0 0 591.9 47.5;" xml:space="preserve">
<style type="text/css">
	.st0{fill:#60328E;}
	.st1{fill:#2F8E3A;}
	.st2{fill:#FFFFFF;}
</style>
<g>
	<g>
		<g>
			<path class="st0" d="M113.6,33.5l16.9-15.1h-15.8v-7.1h30.8v6.2L129,32.4H145v7.1h-31.5V33.5z"/>
			<path class="st0" d="M147.7,11.3h11.1v17.1c0,3.6,2.1,4.8,5.7,4.8c3.6,0,5.7-1.1,5.7-4.8V11.3h11.1v17.5c0,9-5.4,11.7-16.9,11.7
				c-11.5,0-16.9-2.7-16.9-11.7V11.3z"/>
			<path class="st0" d="M193.7,18.4h-10.3v-7.1h31.8v7.1h-10.3v21.1h-11.1V18.4z"/>
			<path class="st0" d="M235.3,10.3c6.8,0,19.3,0.5,19.3,15.1S242,40.5,235.3,40.5c-6.8,0-19.3-0.5-19.3-15.1S228.5,10.3,235.3,10.3
				z M235.3,33.4c4.5,0,7.4-2.3,7.4-8s-2.9-8-7.4-8c-4.5,0-7.4,2.3-7.4,8S230.7,33.4,235.3,33.4z"/>
			<path class="st0" d="M256.3,11.3H272l4.6,16.4h0.1l4.6-16.4H297v28.2h-10.1V19.3h-0.1l-5.9,20.2h-8.5l-5.9-20.2h-0.1v20.2h-10.1
				V11.3z"/>
			<path class="st0" d="M309.7,11.3h13.7l12,28.2h-11.9l-1.2-3.2h-11.6l-1.2,3.2h-11.9L309.7,11.3z M316.6,19.8L316.6,19.8l-3.4,9.6
				h6.7L316.6,19.8z"/>
			<path class="st0" d="M339.5,31.6l-12.5-20.3h12.7l5.4,11.1l5.4-11.1h12.7l-12.5,20.3v7.9h-11.1V31.6z"/>
			<path class="st0" d="M379.1,10.3c6.8,0,19.3,0.5,19.3,15.1s-12.5,15.1-19.3,15.1c-6.8,0-19.3-0.5-19.3-15.1
				S372.4,10.3,379.1,10.3z M379.1,33.4c4.5,0,7.4-2.3,7.4-8s-2.9-8-7.4-8c-4.5,0-7.4,2.3-7.4,8S374.6,33.4,379.1,33.4z"/>
			<path class="st0" d="M438.8,11.3h15.7l4.6,16.4h0.1l4.6-16.4h15.7v28.2h-10.1V19.3h-0.1l-5.9,20.2h-8.5L449,19.3h-0.1v20.2h-10.1
				V11.3z"/>
			<path class="st0" d="M492.9,11.3h13.7l12,28.2h-11.9l-1.2-3.2H494l-1.2,3.2h-11.9L492.9,11.3z M499.8,19.8L499.8,19.8l-3.4,9.6
				h6.7L499.8,19.8z"/>
			<path class="st0" d="M520,11.3h23.5c3.2,0,5.1,0.3,6.7,1c2.1,1,3.8,3.8,3.8,6.8c0,2.6-1.1,5.5-4.3,6.4v0.1c1.7,0.5,3,1.9,3.2,4.3
				l0.5,6.2c0.1,1.3,0.7,2.5,1.4,3.3h-12.2c-0.4-0.8-0.4-2.1-0.6-5.3c-0.1-2.1-0.8-3.4-2.9-3.4h-7.9v8.7H520V11.3z M531.2,23.7h7.9
				c2.2,0,3.1-0.9,3.1-2.6c0-2.1-1.4-2.6-3.2-2.6h-7.7V23.7z"/>
			<path class="st0" d="M565.4,18.4h-10.3v-7.1h31.8v7.1h-10.3v21.1h-11.1V18.4z"/>
		</g>
		<g>
			<path class="st1" d="M422.5,9.8c-0.6,0.1-1,0.4-1,0.8c0,0.4,0.6,0.6,1.2,0.6c0.6-0.1,1-0.4,1-0.8C423.7,10,423.1,9.7,422.5,9.8z"
				/>
			<path class="st1" d="M427.4,33.7c-6.1,0.7-12.2,1.5-18.3,2.3c-0.5,0.1-1.1,0.1-1.8,0.2c-0.6-2.6-1.1-5-1.6-7.4
				c-1.3-5.9-2.5-11.8-3.9-17.7c-0.6-2.7-2.5-3.9-5.2-3.5c-1.7,0.2-0.3,0.2-2,0.3c-0.9,0.1-1.5,0.5-1.4,1.5c0.1,0.9,0.8,1.2,1.7,1.1
				c1.6-0.2,0.2-0.1,1.9-0.3c1.6-0.2,2.3,0.3,2.6,1.8c1.7,7.8,3.4,15.6,5.1,23.4c0.2,0.7,0.3,1.3-0.5,1.8c-1.5,1-1.8,3-1,4.5
				c0.8,1.5,2.6,2.2,4.3,1.7c1.6-0.5,2.6-2.1,2.4-3.9c0-0.3-0.1-0.5-0.1-0.9c4.8-0.6,9.6-1.2,14.3-1.8c0.2,0.8,0.3,1.5,0.6,2.2
				c0.8,1.6,2.8,2.3,4.4,1.6c1.6-0.6,2.6-2.5,2.2-4.2C430.9,34.7,429.2,33.5,427.4,33.7z M406.4,41.4c-0.8,0.1-1.4-0.5-1.5-1.3
				c-0.1-0.8,0.5-1.4,1.3-1.5c0.8-0.1,1.4,0.5,1.5,1.3C407.7,40.7,407.1,41.4,406.4,41.4z M427.8,38.6c-0.5,0-0.9-0.2-1.2-0.5
				c-0.2-0.2-0.3-0.4-0.3-0.7c0,0,0,0,0-0.1c0,0,0-0.1,0-0.1c0-0.1,0-0.2,0-0.2c0.1-0.6,0.6-1.1,1.3-1.1c0.8-0.1,1.4,0.5,1.5,1.3
				C429.2,37.9,428.6,38.6,427.8,38.6z"/>
			<path class="st1" d="M436.5,13.8c0.4-2.1,0.3-2.7-1.9-2.5c-1.1,0.1-2.1,0.3-3.2,0.4l-1.8-1.4l3.2-3.6l-5.2-0.2l0.6-5.1l-4.2,2.8
				L421.4,0l-1.7,5l-4.4-2.2l1.4,4.9l-5,1.4l4,3.1l-1.3,1.7c-2.7,0.3-5.4,0.7-8.1,1c-1.7,0.2-2,0.6-1.7,2.3c1.1,5.3,2.3,10.7,3.4,16
				c0.3,1.2,0.9,1.6,2.1,1.4c5.9-0.8,15.2-2,21.1-2.7c1-0.1,2.3-0.6,2.6-1.6c0.1-0.5,0.2-1,0.3-1.4c0,0,0,0,0,0c0,0,0,0,0,0
				c0.4-2.2,0.7-4.6,1.1-7C435.8,18.5,436.3,14.9,436.5,13.8z M424,6.3c0-0.4,0.2-0.7,0.6-0.7c0.4,0,0.7,0.2,0.7,0.6l0.2,2
				c0,0.4-0.2,0.7-0.6,0.7c-0.4,0-0.7-0.2-0.7-0.6L424,6.3z M419.3,6.9c0-0.4,0.2-0.7,0.6-0.7c0.4,0,0.7,0.2,0.7,0.6l0.2,2
				c0,0.4-0.2,0.7-0.6,0.7c-0.4,0-0.7-0.2-0.7-0.6L419.3,6.9z M420.4,13.1c-0.4,0.1-0.8,0.1-1.2,0.2l0,0.1l0,0.3
				c0.1,0.8-0.5,1.5-1.2,1.6c-0.8,0.1-1.5-0.5-1.6-1.2l0-0.3l0,0l2.8-0.3c-0.1-0.2-0.2-0.5-0.2-0.7c-0.2-1.4,0.9-2.8,2.3-2.9
				l2.4-0.3c1.4-0.2,2.8,0.9,2.9,2.3c0,0.2,0,0.4,0,0.6l2.8-0.3l0,0l0,0.4c0.1,0.8-0.5,1.5-1.2,1.6c-0.8,0.1-1.5-0.5-1.6-1.2l0-0.3
				l0,0C424.5,12.6,422.5,12.9,420.4,13.1z"/>
		</g>
		<g>
			<path class="st0" d="M55.7,7.4c-22.4,0-40.7,7.9-40.7,17.7s18.2,17.7,40.7,17.7S96.4,34.8,96.4,25S78.1,7.4,55.7,7.4z"/>
			<g>
				<path class="st2" d="M22.9,29.6l10.7-8.3h-8.3l0.8-3.9h16.3l-0.7,3.4L31.2,29h8.5L39,32.9H22.3L22.9,29.6z"/>
				<path class="st2" d="M43.8,17.4h8.3l0.6,9h0l4.3-9h8.3l-3.2,15.5h-5.4l2.3-11.1h0l-5.4,11.1h-4.5l-0.9-11.1h0L46,32.9h-5.4
					L43.8,17.4z"/>
				<path class="st2" d="M67,17.4h8.3l0.6,9h0l4.3-9h8.3l-3.2,15.5H80l2.3-11.1h0l-5.4,11.1h-4.5l-0.9-11.1h0l-2.3,11.1h-5.4
					L67,17.4z"/>
			</g>
			<path class="st1" d="M55.7,47.5C24.5,47.5,0,37.6,0,25S24.5,2.6,55.7,2.6c31.2,0,55.7,9.9,55.7,22.4S87,47.5,55.7,47.5z
				 M55.7,4.7C30,4.7,9.1,13.9,9.1,25S30,45.3,55.7,45.3s46.7-9.1,46.7-20.3S81.5,4.7,55.7,4.7z"/>
		</g>
	</g>
	<g>
		<path class="st0" d="M586,39.5c-3.2,0-5.9-2.6-5.9-5.9c0-3.2,2.6-5.9,5.9-5.9s5.9,2.6,5.9,5.9C591.9,36.9,589.2,39.5,586,39.5z
			 M586,29c-2.3,0-4.2,2.1-4.2,4.6c0,2.5,1.9,4.6,4.2,4.6c2.3,0,4.2-2.1,4.2-4.6C590.1,31.1,588.3,29,586,29z"/>
		<g>
			<path class="st0" d="M583.2,35.1l3-2.8h-2.8V31h5.4v1.1l-2.9,2.8h2.8v1.3h-5.6V35.1z"/>
		</g>
	</g>
</g>
</svg>
